ply
format ascii 1.0
comment VCGLIB generated
element vertex 168
property float x
property float y
property float z
element face 332
property list uchar int vertex_indices
end_header
0 -0.75 -0.09708321 
0 -0.7801502 0 
-0.07467937 -0.75 0 
0 -0.7646221 0.25 
-0.03621793 -0.75 0.25 
0 -0.75 0.2836311 
0.25 -0.75 -0.03208327 
0.25 -0.7599638 0 
0.25 -0.75 0.1604166 
0.1810899 -0.75 0.25 
0.2676282 -0.75 0 
-0.25 -0.5 -0.3032197 
-0.25 -0.5491946 -0.25 
-0.2909381 -0.5 -0.25 
-0.25 -0.6542367 0 
-0.3783507 -0.5 0 
-0.25 -0.6332283 0.25 
-0.3608682 -0.5 0.25 
-0.25 -0.5 0.4764881 
0 -0.5 -0.4509469 
0 -0.6857493 -0.25 
-0.2246795 -0.5 0.5 
0 -0.6227241 0.5 
0 -0.5 0.61234 
0.25 -0.5 -0.4214015 
0.25 -0.6584384 -0.25 
0.25 -0.7424721 0.25 
0.25 -0.5954132 0.5 
0.25 -0.5 0.5873399 
0.4571886 -0.5 -0.25 
0.5 -0.5 -0.1720834 
0.5 -0.572304 0 
0.5 -0.5512955 0.25 
0.5 -0.5 0.3372023 
0.3747711 -0.5 0.5 
0.5509121 -0.5 0 
0.5361195 -0.5 0.25 
-0.5 -0.25 -0.03708315 
-0.5 -0.2740799 0 
-0.5083899 -0.25 0 
-0.5 -0.25 0.185416 
-0.25 -0.25 -0.4782196 
-0.4255536 -0.25 -0.25 
-0.4954836 -0.25 0.25 
-0.25 -0.4786255 0.5 
-0.373106 -0.25 0.5 
-0.25 -0.25 0.6354165 
0 -0.25 -0.581495 
0 -0.4299241 -0.5 
-0.2131408 -0.25 -0.5 
-0.02083349 -0.25 0.75 
0 -0.2675866 0.75 
0 -0.25 0.7571273 
0.25 -0.25 -0.5623773 
0.25 -0.3877163 -0.5 
0.25 -0.25 0.7354167 
0.1041672 -0.25 0.75 
0.3665292 -0.25 -0.5 
0.5 -0.25 -0.3895833 
0.5 -0.4494047 -0.25 
0.5 -0.3520024 0.5 
0.5 -0.25 0.5604167 
0.590853 -0.25 -0.25 
0.6648176 -0.25 0 
0.6500249 -0.25 0.25 
0.5464745 -0.25 0.5 
-0.5 0 -0.2120831 
-0.5479826 0 0 
-0.5 -0.2315475 0.25 
-0.5366703 0 0.25 
-0.5 0 0.3657737 
-0.25 0 -0.5373774 
-0.25 -0.1815474 -0.5 
-0.2944347 0 -0.5 
-0.4867424 0 -0.25 
-0.4342948 0 0.5 
-0.25 0 0.7027245 
0 0 -0.6329657 
-0.1554487 0 0.75 
0 0 0.8031797 
0.25 0 -0.613848 
0.25 -0.1958337 0.75 
0.25 0 0.7860746 
0.4626832 0 -0.5 
0.5 0 -0.4691288 
0.5 0 0.6277246 
0.3253207 0 0.75 
0.6426282 0 -0.25 
0.7165928 0 0 
0.7017999 0 0.25 
0.5982497 0 0.5 
-0.5 0.25 -0.1770833 
-0.5400641 0.25 0 
-0.528752 0.25 0.25 
-0.5 0.25 0.3407736 
-0.25 0.25 -0.5270833 
-0.282197 0.25 -0.5 
-0.4745046 0.25 -0.25 
-0.4220572 0.25 0.5 
-0.25 0.25 0.6892629 
0 0.25 -0.6226715 
-0.1285257 0.25 0.75 
0 0.25 0.7939692 
0.25 0.25 -0.603554 
0.25 0.25 0.7768641 
0.4434524 0.25 -0.5 
0.5 0.25 -0.4532198 
0.5 0.25 0.6142631 
0.3060899 0.25 0.75 
0.6322732 0.25 -0.25 
0.7062378 0.25 0 
0.6914449 0.25 0.25 
0.5878947 0.25 0.5 
-0.5 0.4306972 0 
-0.5 0.3796768 0.25 
-0.25 0.3439624 -0.5 
-0.25 0.5 -0.4304924 
-0.3888403 0.5 -0.25 
-0.4762529 0.5 0 
-0.4587704 0.5 0.25 
-0.3363928 0.5 0.5 
-0.25 0.5 0.5950322 
-0.1323717 0.5 -0.5 
0 0.5 -0.5506127 
0 0.4204934 0.75 
0 0.5 0.7200322 
0.25 0.5 -0.5314951 
0.25 0.354167 0.75 
0.25 0.5 0.6950321 
0.3088369 0.5 -0.5 
0.5 0.5 -0.3418561 
0.5 0.5 0.5200322 
0.5597882 0.5 -0.25 
0.6337523 0.5 0 
0.6189597 0.5 0.25 
0.5154092 0.5 0.5 
-0.25 0.7181778 -0.25 
-0.25 0.75 -0.1920834 
-0.317162 0.75 0 
-0.2996795 0.75 0.25 
-0.25 0.6357603 0.5 
-0.25 0.75 0.3514881 
0 0.5945513 -0.5 
0 0.75 -0.3714015 
-0.2054489 0.75 -0.25 
-0.09006429 0.75 0.5 
0 0.75 0.545032 
0.25 0.5588369 -0.5 
0.25 0.75 -0.3418561 
0.25 0.75 0.5200322 
0.3610349 0.75 -0.25 
0.5 0.6110349 -0.25 
0.4983976 0.75 0 
0.5 0.7483976 0 
0.4709249 0.75 0.25 
0.5 0.7209251 0.25 
0.2786174 0.75 0.5 
0.5 0.5286174 0.5 
-0.25 0.8222117 0 
-0.25 0.8034148 0.25 
0 0.8504071 -0.25 
0 0.9443922 0 
0 0.9255953 0.25 
0 0.7940164 0.5 
0.25 0.8259711 -0.25 
0.25 0.9199562 0 
0.25 0.9011593 0.25 
0.25 0.7695804 0.5 
3 0 1 2 
3 1 3 4 
3 2 1 4 
3 3 5 4 
3 0 6 7 
3 1 0 7 
3 8 9 3 
3 8 3 7 
3 7 3 1 
3 3 9 5 
3 7 6 10 
3 7 10 8 
3 11 12 13 
3 12 14 15 
3 13 12 15 
3 14 16 17 
3 15 14 17 
3 16 18 17 
3 11 19 20 
3 12 11 20 
3 2 20 0 
3 2 14 20 
3 14 12 20 
3 4 14 2 
3 16 14 4 
3 16 21 18 
3 4 21 16 
3 4 22 21 
3 4 5 22 
3 22 23 21 
3 19 24 25 
3 20 19 25 
3 25 0 20 
3 6 0 25 
3 8 26 9 
3 9 22 5 
3 9 26 22 
3 26 27 22 
3 22 27 28 
3 23 22 28 
3 25 24 29 
3 29 30 31 
3 25 29 31 
3 25 31 10 
3 25 10 6 
3 10 26 8 
3 10 31 26 
3 31 32 26 
3 33 34 27 
3 33 27 32 
3 32 27 26 
3 27 34 28 
3 31 30 35 
3 32 31 35 
3 36 32 35 
3 32 36 33 
3 37 38 39 
3 38 40 39 
3 41 11 13 
3 42 41 13 
3 37 15 38 
3 37 42 15 
3 42 13 15 
3 38 43 40 
3 38 15 43 
3 15 17 43 
3 18 44 45 
3 18 45 17 
3 17 45 43 
3 44 46 45 
3 47 48 49 
3 48 41 49 
3 48 19 41 
3 19 11 41 
3 21 44 18 
3 44 50 46 
3 21 50 44 
3 21 51 50 
3 21 23 51 
3 51 52 50 
3 47 53 54 
3 48 47 54 
3 54 19 48 
3 24 19 54 
3 51 55 56 
3 51 23 55 
3 23 28 55 
3 51 56 52 
3 54 53 57 
3 57 58 59 
3 54 57 59 
3 54 59 29 
3 54 29 24 
3 29 59 30 
3 33 60 34 
3 34 60 61 
3 34 61 28 
3 28 61 55 
3 59 58 62 
3 30 59 62 
3 30 62 35 
3 35 62 63 
3 35 63 36 
3 36 63 64 
3 60 33 36 
3 60 36 65 
3 65 36 64 
3 60 65 61 
3 66 37 39 
3 67 66 39 
3 40 68 69 
3 40 69 39 
3 39 69 67 
3 68 70 69 
3 71 72 73 
3 72 41 42 
3 72 42 73 
3 73 42 74 
3 42 66 74 
3 37 66 42 
3 43 68 40 
3 68 75 70 
3 68 43 75 
3 43 45 75 
3 46 76 75 
3 45 46 75 
3 49 72 71 
3 49 71 47 
3 47 71 77 
3 49 41 72 
3 78 46 50 
3 76 46 78 
3 52 79 78 
3 50 52 78 
3 53 47 80 
3 80 47 77 
3 55 81 56 
3 56 81 82 
3 56 82 52 
3 52 82 79 
3 83 57 53 
3 80 83 53 
3 58 83 84 
3 57 83 58 
3 81 85 86 
3 81 55 85 
3 55 61 85 
3 81 86 82 
3 87 62 58 
3 84 87 58 
3 62 87 63 
3 63 87 88 
3 63 88 64 
3 64 88 89 
3 64 89 65 
3 65 89 90 
3 65 90 85 
3 61 65 85 
3 91 66 67 
3 92 91 67 
3 67 69 92 
3 69 93 92 
3 70 94 93 
3 69 70 93 
3 95 71 73 
3 96 95 73 
3 73 74 96 
3 74 97 96 
3 74 91 97 
3 66 91 74 
3 98 70 75 
3 94 70 98 
3 76 99 98 
3 75 76 98 
3 77 71 100 
3 100 71 95 
3 101 76 78 
3 99 76 101 
3 79 102 101 
3 78 79 101 
3 80 77 103 
3 103 77 100 
3 82 104 79 
3 104 102 79 
3 105 83 80 
3 103 105 80 
3 84 105 106 
3 83 105 84 
3 107 86 85 
3 108 86 107 
3 86 108 104 
3 82 86 104 
3 109 87 84 
3 106 109 84 
3 87 109 88 
3 88 109 110 
3 88 110 89 
3 89 110 111 
3 89 111 90 
3 90 111 112 
3 90 112 107 
3 85 90 107 
3 91 92 113 
3 92 93 114 
3 113 92 114 
3 93 94 114 
3 95 96 115 
3 116 115 96 
3 116 96 117 
3 117 96 97 
3 113 97 91 
3 113 118 97 
3 118 117 97 
3 114 118 113 
3 119 118 114 
3 94 119 114 
3 94 98 119 
3 98 120 119 
3 99 121 120 
3 98 99 120 
3 115 122 123 
3 115 123 95 
3 95 123 100 
3 115 116 122 
3 124 99 101 
3 124 125 99 
3 125 121 99 
3 101 102 124 
3 103 100 126 
3 126 100 123 
3 125 127 128 
3 124 127 125 
3 127 124 102 
3 104 127 102 
3 129 105 103 
3 126 129 103 
3 106 129 130 
3 105 129 106 
3 108 128 127 
3 108 107 128 
3 107 131 128 
3 108 127 104 
3 132 109 106 
3 130 132 106 
3 109 132 110 
3 110 132 133 
3 110 133 111 
3 111 133 134 
3 111 134 112 
3 112 134 135 
3 112 135 131 
3 107 112 131 
3 116 117 136 
3 137 136 117 
3 137 117 138 
3 138 117 118 
3 118 119 138 
3 119 139 138 
3 140 141 139 
3 140 139 120 
3 120 139 119 
3 120 121 140 
3 123 122 142 
3 143 136 144 
3 142 136 143 
3 142 116 136 
3 142 122 116 
3 136 137 144 
3 140 145 141 
3 145 140 121 
3 145 121 146 
3 146 121 125 
3 126 123 142 
3 147 126 142 
3 142 148 147 
3 143 148 142 
3 128 149 125 
3 149 146 125 
3 129 126 147 
3 147 148 150 
3 129 147 150 
3 129 150 151 
3 129 151 130 
3 151 152 153 
3 150 152 151 
3 153 154 155 
3 152 154 153 
3 155 156 157 
3 154 156 155 
3 157 156 149 
3 157 149 131 
3 131 149 128 
3 132 130 151 
3 133 132 151 
3 153 133 151 
3 134 133 153 
3 155 134 153 
3 135 134 155 
3 157 135 155 
3 135 157 131 
3 137 138 158 
3 138 139 159 
3 158 138 159 
3 139 141 159 
3 143 144 160 
3 144 137 158 
3 144 158 160 
3 160 158 161 
3 161 158 162 
3 158 159 162 
3 141 145 163 
3 141 163 159 
3 159 163 162 
3 145 146 163 
3 148 143 160 
3 164 148 160 
3 164 160 165 
3 160 161 165 
3 165 161 166 
3 161 162 166 
3 166 162 167 
3 162 163 167 
3 167 163 146 
3 149 167 146 
3 150 148 164 
3 152 150 164 
3 165 152 164 
3 154 152 165 
3 166 154 165 
3 156 154 166 
3 167 156 166 
3 156 167 149 
