ply
format ascii 1.0
comment VCGLIB generated
element vertex 160
property float x
property float y
property float z
element face 320
property list uchar int vertex_indices
end_header
-0.1 -0.7 -0.1392629 
-0.1 -0.7149482 -0.1 
-0.1903259 -0.7 -0.1 
-0.1 -0.7149482 0.1 
-0.1903259 -0.7 0.1 
-0.1 -0.7 0.139263 
0.1 -0.7 -0.1392629 
0.1 -0.7149482 -0.1 
0.1 -0.7149482 0.1 
0.1 -0.7 0.139263 
0.190326 -0.7 -0.1 
0.190326 -0.7 0.1 
-0.5 -0.5 -0.139263 
-0.5 -0.5224621 -0.1 
-0.5224621 -0.5 -0.1 
-0.5 -0.522462 0.1 
-0.522462 -0.5 0.1 
-0.5 -0.5 0.1392632 
-0.3 -0.5 -0.2598253 
-0.3 -0.6445733 -0.1 
-0.3 -0.6445732 0.1 
-0.3 -0.5 0.2598256 
-0.1 -0.5 -0.2836438 
-0.1 -0.5 0.2836437 
0.1 -0.5 -0.2836438 
0.1 -0.5 0.2836437 
0.3000001 -0.6445733 -0.1 
0.3000001 -0.5 -0.2598253 
0.3000001 -0.6445732 0.1 
0.3000001 -0.5 0.2598253 
0.5 -0.5 -0.139263 
0.5 -0.522462 -0.1 
0.5 -0.522462 0.1 
0.5 -0.5 0.139263 
0.5224619 -0.5 -0.1 
0.5224621 -0.5 0.1 
-0.5 -0.3 -0.2598253 
-0.6445733 -0.3 -0.1 
-0.6445732 -0.3 0.1 
-0.5 -0.3 0.2598256 
-0.3 -0.3 -0.2637473 
-0.3 -0.3 0.2637475 
-0.1 -0.3 -0.1674351 
-0.1 -0.3 0.1674351 
0.1 -0.3 -0.1674351 
0.1 -0.3 0.1674351 
0.3000001 -0.3 -0.2637473 
0.3000001 -0.3 0.2637475 
0.5 -0.3 -0.2598255 
0.5 -0.3 0.2598253 
0.6445732 -0.3 -0.1 
0.6445732 -0.3 0.1 
-0.7 -0.1 -0.1392629 
-0.7 -0.1903259 -0.1 
-0.7149482 -0.1 -0.1 
-0.7 -0.1903259 0.1 
-0.7149482 -0.1 0.1 
-0.7 -0.1 0.139263 
-0.5 -0.1 -0.2836438 
-0.5 -0.1 0.2836437 
-0.3 -0.1 -0.1674351 
-0.3 -0.1 0.1674351 
-0.2337691 -0.1 -0.1 
-0.1 -0.2337691 -0.1 
-0.2337692 -0.1 0.1 
-0.1 -0.2337692 0.1 
0.1 -0.2337691 -0.1 
0.1 -0.2337691 0.1 
0.2337693 -0.1 -0.1 
0.3000001 -0.1 -0.1674351 
0.2337693 -0.1 0.1 
0.3000001 -0.1 0.1674351 
0.5 -0.1 -0.2836438 
0.5 -0.1 0.2836437 
0.7 -0.1903257 -0.1 
0.7 -0.1 -0.1392629 
0.7 -0.1903257 0.1 
0.7 -0.1 0.139263 
0.7149484 -0.1 -0.1 
0.7149484 -0.1 0.1 
-0.7 0.1 -0.1392629 
-0.7149482 0.1 -0.1 
-0.7149482 0.1 0.1 
-0.7 0.1 0.139263 
-0.5 0.1 -0.2836438 
-0.5 0.1 0.2836437 
-0.3 0.1 -0.1674351 
-0.3 0.1 0.1674351 
-0.2337691 0.1 -0.1 
-0.2337691 0.1 0.1 
0.3000001 0.1 -0.1674352 
0.2337691 0.1 -0.1 
0.2337693 0.1 0.1 
0.3000001 0.1 0.1674351 
0.5 0.1 -0.2836438 
0.5 0.1 0.2836437 
0.7 0.1 -0.1392629 
0.7 0.1 0.139263 
0.7149484 0.1 -0.1 
0.7149484 0.1 0.1 
-0.7 0.190326 -0.1 
-0.7 0.190326 0.1 
-0.6445733 0.3000001 -0.1 
-0.5 0.3000001 -0.2598253 
-0.6445732 0.3000001 0.1 
-0.5 0.3000001 0.2598253 
-0.3 0.3000001 -0.2637473 
-0.3 0.3000001 0.2637475 
-0.1 0.2337693 -0.1 
-0.1 0.3000001 -0.1674351 
-0.1 0.2337693 0.1 
-0.1 0.3000001 0.1674351 
0.1 0.3000001 -0.1674352 
0.1 0.2337691 -0.1 
0.1 0.2337693 0.1 
0.1 0.3000001 0.1674351 
0.3000001 0.3000001 -0.2637473 
0.3000001 0.3000001 0.2637475 
0.5 0.3000001 -0.2598253 
0.5 0.3000001 0.2598253 
0.6445732 0.3000001 -0.1 
0.7 0.1903256 -0.1 
0.6445732 0.3000001 0.1 
0.7 0.1903256 0.1 
-0.5 0.5 -0.139263 
-0.522462 0.5 -0.1 
-0.522462 0.5 0.1 
-0.5 0.5 0.139263 
-0.3 0.5 -0.2598255 
-0.3 0.5 0.2598253 
-0.1 0.5 -0.2836438 
-0.1 0.5 0.2836437 
0.1 0.5 -0.2836438 
0.1 0.5 0.2836437 
0.3000001 0.5 -0.2598253 
0.3000001 0.5 0.2598253 
0.5 0.5 -0.1392629 
0.5 0.5 0.139263 
0.5224621 0.5 -0.1 
0.5224619 0.5 0.1 
-0.5 0.5224619 -0.1 
-0.5 0.5224621 0.1 
-0.3 0.6445732 -0.1 
-0.3 0.6445732 0.1 
-0.1903257 0.7 -0.1 
-0.1 0.7 -0.1392629 
-0.1903257 0.7 0.1 
-0.1 0.7 0.139263 
0.1 0.7 -0.1392629 
0.1 0.7 0.139263 
0.1903256 0.7 -0.1 
0.3000001 0.6445732 -0.1 
0.1903256 0.7 0.1 
0.3000001 0.6445732 0.1 
0.5 0.5224621 -0.1 
0.5 0.5224619 0.1 
-0.1 0.7149484 -0.1 
-0.1 0.7149484 0.1 
0.1 0.7149484 -0.1 
0.1 0.7149484 0.1 
3 0 1 2 
3 1 3 4 
3 2 1 4 
3 3 5 4 
3 0 6 7 
3 1 0 7 
3 7 8 1 
3 1 8 3 
3 3 8 9 
3 5 3 9 
3 7 6 10 
3 8 7 10 
3 11 8 10 
3 8 11 9 
3 12 13 14 
3 13 15 16 
3 14 13 16 
3 15 17 16 
3 12 18 19 
3 13 12 19 
3 19 20 13 
3 13 20 15 
3 15 20 21 
3 17 15 21 
3 2 19 18 
3 2 18 0 
3 0 18 22 
3 4 19 2 
3 20 19 4 
3 20 4 5 
3 20 5 21 
3 21 5 23 
3 6 0 24 
3 24 0 22 
3 9 25 5 
3 25 23 5 
3 26 10 6 
3 26 6 27 
3 27 6 24 
3 10 28 11 
3 26 28 10 
3 11 28 29 
3 11 29 9 
3 9 29 25 
3 27 30 31 
3 26 27 31 
3 31 32 26 
3 26 32 28 
3 28 32 33 
3 29 28 33 
3 31 30 34 
3 32 31 34 
3 35 32 34 
3 32 35 33 
3 36 12 14 
3 37 36 14 
3 14 16 37 
3 16 38 37 
3 17 39 38 
3 16 17 38 
3 18 12 40 
3 40 12 36 
3 21 41 17 
3 41 39 17 
3 22 18 42 
3 42 18 40 
3 23 43 21 
3 43 41 21 
3 24 22 44 
3 44 22 42 
3 25 45 23 
3 45 43 23 
3 27 24 46 
3 46 24 44 
3 29 47 25 
3 47 45 25 
3 30 27 48 
3 48 27 46 
3 33 49 29 
3 49 47 29 
3 50 34 30 
3 48 50 30 
3 34 50 35 
3 35 50 51 
3 35 51 49 
3 33 35 49 
3 52 53 54 
3 53 55 56 
3 54 53 56 
3 55 57 56 
3 37 53 52 
3 37 52 36 
3 36 52 58 
3 38 53 37 
3 55 53 38 
3 55 38 39 
3 55 39 57 
3 57 39 59 
3 40 36 60 
3 60 36 58 
3 41 61 39 
3 61 59 39 
3 62 63 42 
3 62 42 60 
3 60 42 40 
3 63 64 65 
3 62 64 63 
3 65 64 61 
3 65 61 43 
3 43 61 41 
3 44 42 63 
3 66 44 63 
3 66 63 67 
3 63 65 67 
3 67 65 43 
3 45 67 43 
3 66 68 69 
3 66 69 44 
3 44 69 46 
3 67 68 66 
3 70 68 67 
3 70 67 45 
3 70 45 71 
3 71 45 47 
3 48 46 72 
3 72 46 69 
3 49 73 47 
3 73 71 47 
3 74 50 48 
3 74 48 75 
3 75 48 72 
3 50 76 51 
3 74 76 50 
3 51 76 77 
3 51 77 49 
3 49 77 73 
3 74 75 78 
3 76 74 78 
3 79 76 78 
3 76 79 77 
3 80 52 54 
3 81 80 54 
3 54 56 81 
3 56 82 81 
3 57 83 82 
3 56 57 82 
3 58 52 84 
3 84 52 80 
3 59 85 57 
3 85 83 57 
3 60 58 86 
3 86 58 84 
3 61 87 59 
3 87 85 59 
3 88 62 60 
3 86 88 60 
3 62 88 64 
3 64 88 89 
3 64 89 87 
3 61 64 87 
3 90 69 68 
3 91 90 68 
3 68 70 91 
3 70 92 91 
3 71 93 92 
3 70 71 92 
3 72 69 94 
3 94 69 90 
3 73 95 71 
3 95 93 71 
3 75 72 96 
3 96 72 94 
3 77 97 73 
3 97 95 73 
3 98 78 75 
3 96 98 75 
3 78 98 79 
3 79 98 99 
3 79 99 97 
3 77 79 97 
3 80 81 100 
3 81 82 101 
3 100 81 101 
3 82 83 101 
3 100 102 103 
3 100 103 80 
3 80 103 84 
3 101 102 100 
3 104 102 101 
3 104 101 83 
3 104 83 105 
3 105 83 85 
3 86 84 106 
3 106 84 103 
3 87 107 85 
3 107 105 85 
3 108 88 86 
3 108 86 109 
3 109 86 106 
3 88 110 89 
3 108 110 88 
3 89 110 111 
3 89 111 87 
3 87 111 107 
3 109 112 113 
3 108 109 113 
3 113 114 108 
3 108 114 110 
3 110 114 115 
3 111 110 115 
3 91 113 112 
3 91 112 90 
3 90 112 116 
3 92 113 91 
3 114 113 92 
3 114 92 93 
3 114 93 115 
3 115 93 117 
3 94 90 118 
3 118 90 116 
3 95 119 93 
3 119 117 93 
3 120 121 96 
3 120 96 118 
3 118 96 94 
3 121 122 123 
3 120 122 121 
3 123 122 119 
3 123 119 97 
3 97 119 95 
3 98 96 121 
3 99 98 121 
3 123 99 121 
3 99 123 97 
3 124 103 102 
3 125 124 102 
3 102 104 125 
3 104 126 125 
3 105 127 126 
3 104 105 126 
3 106 103 128 
3 128 103 124 
3 107 129 105 
3 129 127 105 
3 109 106 130 
3 130 106 128 
3 111 131 107 
3 131 129 107 
3 112 109 132 
3 132 109 130 
3 115 133 111 
3 133 131 111 
3 116 112 134 
3 134 112 132 
3 117 135 115 
3 135 133 115 
3 118 116 136 
3 136 116 134 
3 119 137 117 
3 137 135 117 
3 138 120 118 
3 136 138 118 
3 120 138 122 
3 122 138 139 
3 122 139 137 
3 119 122 137 
3 124 125 140 
3 125 126 141 
3 140 125 141 
3 126 127 141 
3 128 124 140 
3 142 128 140 
3 142 140 143 
3 140 141 143 
3 143 141 127 
3 129 143 127 
3 142 144 145 
3 142 145 128 
3 128 145 130 
3 143 144 142 
3 146 144 143 
3 146 143 129 
3 146 129 147 
3 147 129 131 
3 132 130 148 
3 148 130 145 
3 133 149 131 
3 149 147 131 
3 150 151 134 
3 150 134 148 
3 148 134 132 
3 151 152 153 
3 150 152 151 
3 153 152 149 
3 153 149 135 
3 135 149 133 
3 136 134 151 
3 154 136 151 
3 154 151 155 
3 151 153 155 
3 155 153 135 
3 137 155 135 
3 138 136 154 
3 139 138 154 
3 155 139 154 
3 139 155 137 
3 145 144 156 
3 144 146 157 
3 156 144 157 
3 146 147 157 
3 148 145 156 
3 158 148 156 
3 158 156 159 
3 156 157 159 
3 159 157 147 
3 149 159 147 
3 150 148 158 
3 152 150 158 
3 159 152 158 
3 152 159 149 
